<svg width="88" height="34" viewBox="0 0 88 34" fill="none" xmlns="http://www.w3.org/2000/svg">
<path d="M37.0359 0.769859H9.58924C7.94244 0.769859 6.625 2.12389 6.625 3.7341V20.7876C6.625 22.4344 7.97903 23.7518 9.58924 23.7518H28.5091L32.7908 28.0701C32.9738 28.2531 33.1933 28.3629 33.4495 28.3629C33.9619 28.3629 34.401 27.9603 34.401 27.4114V23.7518H37.0359C38.6827 23.7518 40.0001 22.3978 40.0001 20.7876V3.7341C40.0001 2.0873 38.6461 0.769859 37.0359 0.769859ZM13.7977 15.4447C12.2973 15.4447 11.0531 14.2004 11.0531 12.7C11.0531 11.1996 12.2973 9.95533 13.7977 9.95533C15.2981 9.95533 16.5424 11.1996 16.5424 12.7C16.5424 14.2004 15.3347 15.4447 13.7977 15.4447ZM23.4223 15.4447C21.9219 15.4447 20.6777 14.2004 20.6777 12.7C20.6777 11.1996 21.9219 9.95533 23.4223 9.95533C24.9228 9.95533 26.167 11.1996 26.167 12.7C26.167 14.2004 24.9228 15.4447 23.4223 15.4447ZM33.0104 15.4447C31.51 15.4447 30.2657 14.2004 30.2657 12.7C30.2657 11.1996 31.51 9.95533 33.0104 9.95533C34.5108 9.95533 35.755 11.1996 35.755 12.7C35.755 14.2004 34.5108 15.4447 33.0104 15.4447Z" fill="#27BCD8"/>
<path d="M4.9415 20.8607V15.042H1.94067C0.879396 15.042 0.00110349 15.9203 0.00110349 16.9816V28.1798C-0.035492 29.3143 0.8428 30.1926 1.94067 30.1926H3.66066V32.6079C3.66066 32.9372 3.95342 33.23 4.28278 33.23C4.46576 33.23 4.61214 33.1568 4.72193 33.047L7.53978 30.2292H19.9823C21.0435 30.2292 21.9218 29.3509 21.9218 28.2896V25.5083H9.58913C7.02744 25.5083 4.9415 23.4224 4.9415 20.8607Z" fill="#27BCD8"/>
<path d="M85.0359 0.769859H57.5892C55.9424 0.769859 54.625 2.12389 54.625 3.7341V20.7876C54.625 22.4344 55.979 23.7518 57.5892 23.7518H76.5091L80.7908 28.0701C80.9738 28.2531 81.1933 28.3629 81.4495 28.3629C81.9619 28.3629 82.401 27.9603 82.401 27.4114V23.7518H85.0359C86.6827 23.7518 88.0001 22.3978 88.0001 20.7876V3.7341C88.0001 2.0873 86.6461 0.769859 85.0359 0.769859ZM61.7977 15.4447C60.2973 15.4447 59.0531 14.2004 59.0531 12.7C59.0531 11.1996 60.2973 9.95533 61.7977 9.95533C63.2981 9.95533 64.5424 11.1996 64.5424 12.7C64.5424 14.2004 63.3347 15.4447 61.7977 15.4447ZM71.4223 15.4447C69.9219 15.4447 68.6777 14.2004 68.6777 12.7C68.6777 11.1996 69.9219 9.95533 71.4223 9.95533C72.9228 9.95533 74.167 11.1996 74.167 12.7C74.167 14.2004 72.9228 15.4447 71.4223 15.4447ZM81.0104 15.4447C79.51 15.4447 78.2657 14.2004 78.2657 12.7C78.2657 11.1996 79.51 9.95533 81.0104 9.95533C82.5108 9.95533 83.755 11.1996 83.755 12.7C83.755 14.2004 82.5108 15.4447 81.0104 15.4447Z" fill="white"/>
<path d="M52.9415 20.8607V15.042H49.9407C48.8794 15.042 48.0011 15.9203 48.0011 16.9816V28.1798C47.9645 29.3143 48.8428 30.1926 49.9407 30.1926H51.6607V32.6079C51.6607 32.9372 51.9534 33.23 52.2828 33.23C52.4658 33.23 52.6121 33.1568 52.7219 33.047L55.5398 30.2292H67.9823C69.0435 30.2292 69.9218 29.3509 69.9218 28.2896V25.5083H57.5891C55.0274 25.5083 52.9415 23.4224 52.9415 20.8607Z" fill="white"/>
</svg>
