<svg width="128" height="48" viewBox="0 0 128 48" fill="none" xmlns="http://www.w3.org/2000/svg">
<path d="M93.1177 0C94.8748 0.0183933 96.6323 0.00326282 98.3897 0.00504282C98.396 5.39132 98.393 10.7752 98.3897 16.1591C96.6326 16.1606 94.8736 16.163 93.1168 16.1606C93.1177 10.7749 93.1129 5.38746 93.1177 0ZM104.783 18.2316C109.611 13.2479 114.386 8.20372 119.21 3.21349C120.447 4.52001 121.723 5.79123 122.935 7.12415C118.161 12.1529 113.341 17.1316 108.563 22.1556C107.282 20.8696 106.043 19.5396 104.783 18.2316ZM12.3105 15.2718C13.6407 14.9532 15.003 14.7746 16.3686 14.8298C20.8981 14.7209 25.2979 17.107 28.1044 20.7628C29.4394 22.4932 30.4149 24.5272 30.9551 26.6745C28.8796 26.6825 26.8044 26.676 24.7292 26.676C23.8146 24.7773 22.4141 23.0875 20.5866 22.1025C19.5791 21.5303 18.4711 21.1496 17.3327 21.0028C16.2698 20.9811 15.1825 20.8859 14.1415 21.1663C12.3906 21.5617 10.7631 22.5194 9.5239 23.8692C7.90706 25.4543 6.82334 27.6849 6.72752 30.0143C6.51985 32.2334 6.92569 34.5593 8.13787 36.4265C9.30347 38.2148 10.952 39.7049 12.9041 40.4727C16.1772 41.7341 20.1392 40.9735 22.646 38.3975C23.4901 37.5064 24.2208 36.4837 24.7518 35.3573C26.8172 35.3472 28.8832 35.3457 30.9506 35.3573C30.4389 37.6351 29.3243 39.7456 27.916 41.5541C26.9498 42.6072 26.0019 43.7102 24.8123 44.4943C19.4735 48.3302 11.721 48.1134 6.70171 43.7767C5.14154 42.3922 3.71487 40.7988 2.73468 38.9066C0.927986 35.5629 0.47735 31.5437 1.11667 27.7976C1.65571 24.6227 3.25444 21.6979 5.45749 19.4604C7.31581 17.4437 9.69359 15.9218 12.3105 15.2718ZM34.1172 14.8274C36.0886 14.8274 38.0617 14.8274 40.0328 14.8274C40.0313 25.6714 40.0378 36.5146 40.0298 47.3583C38.0585 47.3634 36.0883 47.3548 34.117 47.3563C34.1172 36.5131 34.1172 25.6714 34.1172 14.8274ZM51.9929 21.3027C53.114 21.066 54.2615 21.1998 55.3951 21.1692C56.7096 21.2879 58.0271 21.4846 59.2772 21.9468C60.5309 22.4007 61.8211 22.9694 62.699 24.0525C63.7308 25.3323 64.096 27.034 64.1764 28.666C64.1731 34.896 64.1817 41.1278 64.1731 47.3581C62.1727 47.3486 60.1714 47.4017 58.1727 47.3313C58.1535 46.4841 58.1885 45.6347 58.1597 44.7889C56.4183 46.3553 54.1158 47.0765 51.8585 47.2581C50.4339 47.5132 48.9598 47.2833 47.6007 46.8077C45.8516 46.2005 44.411 44.6821 43.8948 42.83C43.3353 40.8545 43.4522 38.6921 44.1057 36.7582C44.8156 34.7874 46.5265 33.3865 48.4071 32.7469C50.816 31.8578 53.392 31.7208 55.8831 31.2069C56.7449 31.2069 57.5969 30.6516 57.9167 29.8073C58.1469 28.8849 57.9473 27.7285 57.1685 27.1429C56.3115 26.5543 55.2642 26.4321 54.2636 26.4021C53.373 26.4303 52.4314 26.4404 51.6428 26.9326C50.6181 27.5384 50.1577 28.7431 49.956 29.8945C47.9751 29.8512 45.9922 29.8975 44.0114 29.8613C44.2579 27.8291 44.6655 25.6599 46.0631 24.1184C47.5272 22.3304 49.7961 21.4798 51.9929 21.3027ZM56.353 35.3665C55.1826 35.6483 54.0301 36.0123 52.8402 36.2007C51.8935 36.3959 50.8973 36.7145 50.2242 37.4776C49.2891 38.6304 49.2202 40.4089 49.9459 41.692C50.2609 42.2806 50.8863 42.5696 51.4681 42.7799C53.3451 43.1584 55.406 42.5482 56.7763 41.1429C58.1816 39.3095 57.9339 36.8264 57.9292 34.6308C57.3768 34.8144 56.9303 35.257 56.353 35.3665ZM78.2787 22.0441C79.4983 21.732 80.6974 21.2081 81.9784 21.3333C81.9927 23.4387 82.1019 25.5474 82.0597 27.655C80.9698 27.4983 79.8309 27.3713 78.7617 27.7116C76.4542 28.3776 74.5247 30.5 74.2544 33.0196C74.2381 33.5749 74.0945 34.1169 74.0895 34.6744C74.0862 38.904 74.0945 43.132 74.0895 47.3619C72.1232 47.3563 70.1545 47.3767 68.1879 47.35C68.1657 39.0223 68.1829 30.6919 68.1989 22.3627C70.105 22.344 72.0093 22.4191 73.9136 22.493C73.9165 23.5209 73.8892 24.55 73.9266 25.5798C75.0409 24.0291 76.5038 22.6879 78.2787 22.0441ZM93.0121 21.3983C93.8899 21.3063 94.7805 21.2194 95.6646 21.2947C100.97 21.3647 105.813 25.6329 107.078 30.9571C108.169 35.3086 107.108 40.3288 103.95 43.4857C102.123 45.543 99.6156 46.9395 96.9562 47.3583C95.6743 47.3696 94.3919 47.3634 93.1114 47.3619C89.2839 46.7994 85.9579 44.0731 84.0693 40.6208C82.1075 36.8317 82.0995 32.0284 84.0231 28.2207C85.8493 24.7168 89.1765 21.9705 93.0121 21.3983ZM93.4885 27.5662C91.7219 27.9837 90.2178 29.2765 89.3174 30.8951C87.9726 33.2525 88.1865 36.466 89.8641 38.5886C91.572 41.1533 95.0798 42.0204 97.7611 40.7044C99.3198 39.9734 100.51 38.537 101.172 36.9118C101.905 35.0452 101.772 32.854 100.892 31.0675C99.9662 29.2605 98.2663 27.8407 96.3063 27.5155C95.3691 27.4363 94.4177 27.4078 93.4885 27.5662ZM111.201 28.5061C116.468 28.5061 121.736 28.5022 127.005 28.5093C127.001 30.3347 127.008 32.1619 127.003 33.9888C121.736 33.9823 116.471 34.0004 111.205 33.9923C111.196 32.1634 111.21 30.3344 111.201 28.5061Z" fill="#FE0A1A"/>
</svg>
