<svg width="289" height="51" viewBox="0 0 289 51" fill="none" xmlns="http://www.w3.org/2000/svg">
<path fill-rule="evenodd" clip-rule="evenodd" d="M173 4H171V18H169V9H167V18H165V13H163V18H160V20H163H165H167H169H171H173H175H177H180V18H177V9H175V18H173V4Z" fill="#B4B9BB"/>
<path fill-rule="evenodd" clip-rule="evenodd" d="M138 8C138.552 8 139 7.55228 139 7C139 6.44772 138.552 6 138 6C137.448 6 137 6.44772 137 7C137 7.55228 137.448 8 138 8ZM138 10C138.376 10 138.735 9.93093 139.067 9.80479L141.827 14.9314C141.315 15.4696 141 16.1981 141 17C141 18.6569 142.343 20 144 20C145.657 20 147 18.6569 147 17C147 16.3653 146.803 15.7767 146.467 15.2919L148.91 9.99866C148.94 9.99955 148.97 10 149 10C150.657 10 152 8.65685 152 7C152 5.34315 150.657 4 149 4C147.343 4 146 5.34315 146 7C146 7.90853 146.404 8.72274 147.042 9.27288L144.809 14.1104C144.552 14.0385 144.28 14 144 14C143.868 14 143.738 14.0085 143.611 14.025L140.618 8.46656C140.861 8.03294 141 7.53268 141 7C141 5.34315 139.657 4 138 4C136.343 4 135 5.34315 135 7C135 7.8386 135.344 8.59684 135.899 9.14123L134.247 14.0952C132.955 14.4291 132 15.603 132 17C132 18.6569 133.343 20 135 20C136.657 20 138 18.6569 138 17C138 15.8051 137.301 14.7734 136.29 14.2909L137.725 9.98755C137.815 9.99579 137.907 10 138 10ZM135 18C135.552 18 136 17.5523 136 17C136 16.4477 135.552 16 135 16C134.448 16 134 16.4477 134 17C134 17.5523 134.448 18 135 18ZM145 17C145 17.5523 144.552 18 144 18C143.448 18 143 17.5523 143 17C143 16.4477 143.448 16 144 16C144.552 16 145 16.4477 145 17ZM150 7C150 7.55228 149.552 8 149 8C148.448 8 148 7.55228 148 7C148 6.44772 148.448 6 149 6C149.552 6 150 6.44772 150 7Z" fill="#B4B9BB"/>
<path fill-rule="evenodd" clip-rule="evenodd" d="M173 30H171V44H169V35H167V44H165V39H163V44H160V46H163H165H167H169H171H173H175H177H180V44H177V35H175V44H173V30Z" fill="#99A0A3"/>
<path fill-rule="evenodd" clip-rule="evenodd" d="M138 34C138.552 34 139 33.5523 139 33C139 32.4477 138.552 32 138 32C137.448 32 137 32.4477 137 33C137 33.5523 137.448 34 138 34ZM138 36C138.376 36 138.735 35.9309 139.067 35.8048L141.827 40.9314C141.315 41.4696 141 42.1981 141 43C141 44.6569 142.343 46 144 46C145.657 46 147 44.6569 147 43C147 42.3653 146.803 41.7767 146.467 41.2919L148.91 35.9987C148.94 35.9996 148.97 36 149 36C150.657 36 152 34.6569 152 33C152 31.3431 150.657 30 149 30C147.343 30 146 31.3431 146 33C146 33.9085 146.404 34.7227 147.042 35.2729L144.809 40.1104C144.552 40.0385 144.28 40 144 40C143.868 40 143.738 40.0085 143.611 40.025L140.618 34.4666C140.861 34.0329 141 33.5327 141 33C141 31.3431 139.657 30 138 30C136.343 30 135 31.3431 135 33C135 33.8386 135.344 34.5968 135.899 35.1412L134.247 40.0952C132.955 40.4291 132 41.603 132 43C132 44.6569 133.343 46 135 46C136.657 46 138 44.6569 138 43C138 41.8051 137.301 40.7734 136.29 40.2909L137.725 35.9876C137.815 35.9958 137.907 36 138 36ZM135 44C135.552 44 136 43.5523 136 43C136 42.4477 135.552 42 135 42C134.448 42 134 42.4477 134 43C134 43.5523 134.448 44 135 44ZM145 43C145 43.5523 144.552 44 144 44C143.448 44 143 43.5523 143 43C143 42.4477 143.448 42 144 42C144.552 42 145 42.4477 145 43ZM150 33C150 33.5523 149.552 34 149 34C148.448 34 148 33.5523 148 33C148 32.4477 148.448 32 149 32C149.552 32 150 32.4477 150 33Z" fill="#99A0A3"/>
<path d="M113.787 23.9999C115.147 23.9999 116.248 22.8984 116.248 21.5383H111.325C111.325 22.8984 112.427 23.9999 113.787 23.9999Z" fill="#99A0A3"/>
<path d="M121.171 16.6154V10.4615C121.171 6.6769 119.159 3.51998 115.633 2.68304V1.84615C115.633 0.824596 114.808 0 113.787 0C112.765 0 111.94 0.824596 111.94 1.84615V2.6831C108.414 3.52004 106.402 6.67696 106.402 10.4616V16.6154L103.94 19.0769V20.3077H123.633V19.0769L121.171 16.6154Z" fill="#99A0A3"/>
<path d="M11.4061 2.59379C11.0105 2.19778 10.5416 2 9.99992 2H2.00012C1.45832 2 0.989632 2.19795 0.59379 2.59379C0.197949 2.98941 0 3.45826 0 3.9999V20C0 20.5416 0.197949 21.0104 0.59379 21.4061C0.989632 21.802 1.45832 22 2.00012 22H9.99992C10.5415 22 11.0105 21.8018 11.406 21.4061C11.8019 21.0104 11.9999 20.5416 11.9999 20V3.9999C11.9999 3.45826 11.8022 2.98963 11.4061 2.59379ZM4.75005 3.9999H7.25026C7.41696 3.9999 7.50009 4.08325 7.50009 4.24994C7.50009 4.41659 7.4169 4.50005 7.25026 4.50005H4.75005C4.5834 4.50005 4.50005 4.41659 4.50005 4.24994C4.5 4.08325 4.58335 3.9999 4.75005 3.9999ZM6.88309 20.8829C6.63814 21.1274 6.34392 21.2499 6.00007 21.2499C5.65638 21.2499 5.36217 21.1274 5.11732 20.8829C4.87247 20.6378 4.75005 20.3435 4.75005 20C4.75005 19.6561 4.87264 19.3619 5.11732 19.1171C5.36201 18.8725 5.65644 18.7496 6.00007 18.7496C6.34398 18.7496 6.63819 18.8725 6.88309 19.1171C7.12789 19.3619 7.2502 19.6561 7.2502 20C7.2502 20.3438 7.12773 20.6379 6.88309 20.8829ZM10.5002 17.5001C10.5002 17.6353 10.4508 17.7529 10.3516 17.8517C10.2524 17.9506 10.1355 17.9998 10.0003 17.9998H2.00012C1.86472 17.9998 1.74755 17.9504 1.6486 17.8517C1.54966 17.7529 1.50018 17.6353 1.50018 17.5001V6.50016C1.50018 6.36477 1.5496 6.24749 1.6486 6.14865C1.7476 6.04987 1.86472 6.00012 2.00012 6.00012H9.99992C10.1355 6.00012 10.2525 6.04965 10.3516 6.14865C10.4508 6.24754 10.5 6.36477 10.5 6.50016V17.5001H10.5002V17.5001Z" fill="#99A0A3"/>
<path d="M40.0061 17.7736C40.0485 18.0983 39.9495 18.3806 39.7097 18.6205L36.8937 21.4152C36.7667 21.5563 36.6009 21.6764 36.3962 21.7751C36.1915 21.8739 35.9904 21.9375 35.7929 21.9656C35.7788 21.9656 35.7363 21.9693 35.6657 21.9763C35.5952 21.9834 35.5035 21.987 35.3906 21.987C35.1223 21.987 34.6882 21.9411 34.0883 21.8493C33.4884 21.7575 32.7545 21.5316 31.8865 21.1718C31.0183 20.8118 30.0338 20.2719 28.9328 19.5521C27.8319 18.8323 26.6603 17.8442 25.4182 16.5879C24.4301 15.614 23.6115 14.6824 22.9622 13.7932C22.3129 12.9039 21.7906 12.0817 21.3954 11.3265C21.0002 10.5714 20.7037 9.88679 20.5061 9.27278C20.3085 8.65878 20.1744 8.12946 20.1038 7.68484C20.0333 7.24021 20.005 6.89087 20.0192 6.6368C20.0333 6.38273 20.0403 6.24157 20.0403 6.21334C20.0686 6.01573 20.1321 5.81459 20.2309 5.60993C20.3297 5.40526 20.4497 5.23941 20.5908 5.11237L23.4068 2.29642C23.6044 2.09881 23.8302 2 24.0843 2C24.2678 2 24.4301 2.05293 24.5713 2.15879C24.7124 2.26466 24.8324 2.39522 24.9312 2.55049L27.1967 6.84852C27.3237 7.07436 27.359 7.32138 27.3025 7.58956C27.2461 7.85775 27.1261 8.08359 26.9426 8.26709L25.9051 9.30454C25.8769 9.33277 25.8522 9.37865 25.831 9.44216C25.8099 9.50568 25.7993 9.55861 25.7993 9.60096C25.8557 9.89737 25.9828 10.2361 26.1804 10.6172C26.3498 10.956 26.6109 11.3689 26.9638 11.8558C27.3166 12.3428 27.8177 12.9038 28.467 13.539C29.1022 14.1884 29.6668 14.6929 30.1608 15.0529C30.6547 15.4127 31.0677 15.6775 31.3995 15.8469C31.7312 16.0163 31.9852 16.1186 32.1616 16.1538L32.4262 16.2067C32.4544 16.2067 32.5004 16.1961 32.5639 16.175C32.6274 16.1538 32.6733 16.1291 32.7015 16.1008L33.9083 14.8728C34.1625 14.647 34.4588 14.5341 34.7976 14.5341C35.0376 14.5341 35.2281 14.5764 35.3692 14.6611H35.3904L39.4767 17.0748C39.7732 17.2584 39.9496 17.4913 40.0061 17.7736Z" fill="#99A0A3"/>
<path d="M66.7282 7.16541L66.6328 7C64.901 4.01416 61.6714 2 57.9782 2C54.2847 2 51.0552 4.01416 49.3236 7L49.2282 7.16541C48.5603 8.36963 48.1353 9.72542 48.0156 11.1667V12.8333C48.1353 14.2746 48.5603 15.6304 49.2282 16.8342L49.3236 17C51.0552 19.9858 54.2847 22 57.9782 22C61.6714 22 64.901 19.9858 66.6328 17L66.7282 16.8342C67.3961 15.63 67.8211 14.2746 67.9406 12.8333V11.1667C67.8211 9.72542 67.3961 8.36963 66.7282 7.16541V7.16541ZM62.9611 11.1667C62.9281 10.2912 62.8439 9.45422 62.7131 8.66667H65.6106C65.9522 9.44588 66.1811 10.2853 66.269 11.1667H62.9611ZM57.9782 20.3333C57.036 20.3333 56.0297 19.0496 55.3718 17H60.5848C59.9264 19.0496 58.9202 20.3333 57.9782 20.3333ZM54.9486 15.3333C54.8019 14.5612 54.7026 13.722 54.664 12.8333H61.2922C61.2535 13.722 61.1545 14.5612 61.0078 15.3333H54.9486ZM54.664 11.1667C54.7026 10.278 54.8019 9.43876 54.9486 8.66667H61.0078C61.1545 9.43876 61.2535 10.278 61.2922 11.1667H54.664ZM57.9782 3.66667C58.9202 3.66667 59.9264 4.95085 60.5844 7H55.3718C56.0297 4.95085 57.036 3.66667 57.9782 3.66667ZM64.629 7H62.3493C62.0682 5.98336 61.7011 5.08757 61.2647 4.34456C62.6061 4.92297 63.7603 5.84745 64.629 7V7ZM54.6919 4.34456C54.2552 5.08757 53.8882 5.98336 53.6069 7H51.3274C52.1961 5.84745 53.3503 4.92297 54.6919 4.34456ZM50.3455 8.66667H53.2431C53.1127 9.45422 53.028 10.2912 52.9953 11.1667H49.687C49.7749 10.2853 50.0035 9.44588 50.3455 8.66667ZM52.9953 12.8333C53.028 13.7088 53.1123 14.5458 53.2431 15.3333H50.3455C50.0039 14.5541 49.7753 13.7147 49.6874 12.8333H52.9953ZM51.3274 17H53.6069C53.8882 18.0166 54.2552 18.9124 54.6914 19.6554C53.3503 19.077 52.1961 18.1525 51.3274 17ZM61.2643 19.6554C61.7011 18.9124 62.0682 18.0166 62.3489 17H64.6286C63.7603 18.1525 62.6061 19.077 61.2643 19.6554ZM65.611 15.3333H62.7135C62.8439 14.5458 62.9285 13.7088 62.9615 12.8333H66.2698C66.1815 13.7147 65.9526 14.5541 65.611 15.3333V15.3333Z" fill="#99A0A3"/>
<path d="M95.1592 4H76.7217C76.2902 4 75.9404 4.34973 75.9404 4.78125V17.073C75.9404 17.5045 76.2902 17.8542 76.7217 17.8542H81.6034L80.6324 19.7965C80.3731 20.3148 80.7505 20.927 81.3311 20.927H90.5498C91.1295 20.927 91.5082 20.3158 91.2487 19.7965L90.2774 17.8542H95.1592C95.5907 17.8542 95.9404 17.5045 95.9404 17.073V4.78125C95.9404 4.34973 95.5907 4 95.1592 4V4ZM89.2858 19.3647H82.5951L83.3504 17.8542H88.5305L89.2858 19.3647ZM94.3779 16.2917H77.5029V5.5625H94.3779V16.2917Z" fill="#99A0A3"/>
<path d="M113.787 50.9999C115.147 50.9999 116.248 49.8984 116.248 48.5383H111.325C111.325 49.8984 112.427 50.9999 113.787 50.9999Z" fill="#E42531"/>
<path d="M121.171 43.6154V37.4615C121.171 33.6769 119.159 30.52 115.633 29.683V28.8462C115.633 27.8246 114.808 27 113.787 27C112.765 27 111.94 27.8246 111.94 28.8462V29.6831C108.414 30.52 106.402 33.677 106.402 37.4616V43.6154L103.94 46.0769V47.3077H123.633V46.0769L121.171 43.6154Z" fill="#E42531"/>
<path d="M11.4061 29.5938C11.0105 29.1978 10.5416 29 9.99992 29H2.00012C1.45832 29 0.989632 29.1979 0.59379 29.5938C0.197949 29.9894 0 30.4583 0 30.9999V47C0 47.5416 0.197949 48.0104 0.59379 48.4061C0.989632 48.802 1.45832 49 2.00012 49H9.99992C10.5415 49 11.0105 48.8018 11.406 48.4061C11.8019 48.0104 11.9999 47.5416 11.9999 47V30.9999C11.9999 30.4583 11.8022 29.9896 11.4061 29.5938ZM4.75005 30.9999H7.25026C7.41696 30.9999 7.50009 31.0832 7.50009 31.2499C7.50009 31.4166 7.4169 31.5 7.25026 31.5H4.75005C4.5834 31.5 4.50005 31.4166 4.50005 31.2499C4.5 31.0832 4.58335 30.9999 4.75005 30.9999ZM6.88309 47.8829C6.63814 48.1274 6.34392 48.2499 6.00007 48.2499C5.65638 48.2499 5.36217 48.1274 5.11732 47.8829C4.87247 47.6378 4.75005 47.3435 4.75005 47C4.75005 46.6561 4.87264 46.3619 5.11732 46.1171C5.36201 45.8725 5.65644 45.7496 6.00007 45.7496C6.34398 45.7496 6.63819 45.8725 6.88309 46.1171C7.12789 46.3619 7.2502 46.6561 7.2502 47C7.2502 47.3438 7.12773 47.6379 6.88309 47.8829ZM10.5002 44.5001C10.5002 44.6353 10.4508 44.7529 10.3516 44.8517C10.2524 44.9506 10.1355 44.9998 10.0003 44.9998H2.00012C1.86472 44.9998 1.74755 44.9504 1.6486 44.8517C1.54966 44.7529 1.50018 44.6353 1.50018 44.5001V33.5002C1.50018 33.3648 1.5496 33.2475 1.6486 33.1486C1.7476 33.0499 1.86472 33.0001 2.00012 33.0001H9.99992C10.1355 33.0001 10.2525 33.0496 10.3516 33.1486C10.4508 33.2475 10.5 33.3648 10.5 33.5002V44.5001H10.5002V44.5001Z" fill="#E42531"/>
<path d="M40.0061 44.7736C40.0485 45.0983 39.9495 45.3806 39.7097 45.6205L36.8937 48.4152C36.7667 48.5563 36.6009 48.6764 36.3962 48.7751C36.1915 48.8739 35.9904 48.9375 35.7929 48.9656C35.7788 48.9656 35.7363 48.9693 35.6657 48.9763C35.5952 48.9834 35.5035 48.987 35.3906 48.987C35.1223 48.987 34.6882 48.9411 34.0883 48.8493C33.4884 48.7575 32.7545 48.5316 31.8865 48.1718C31.0183 47.8118 30.0338 47.2719 28.9328 46.5521C27.8319 45.8323 26.6603 44.8442 25.4182 43.5879C24.4301 42.614 23.6115 41.6824 22.9622 40.7932C22.3129 39.9039 21.7906 39.0817 21.3954 38.3265C21.0002 37.5714 20.7037 36.8868 20.5061 36.2728C20.3085 35.6588 20.1744 35.1295 20.1038 34.6848C20.0333 34.2402 20.005 33.8909 20.0192 33.6368C20.0333 33.3827 20.0403 33.2416 20.0403 33.2133C20.0686 33.0157 20.1321 32.8146 20.2309 32.6099C20.3297 32.4053 20.4497 32.2394 20.5908 32.1124L23.4068 29.2964C23.6044 29.0988 23.8302 29 24.0843 29C24.2678 29 24.4301 29.0529 24.5713 29.1588C24.7124 29.2647 24.8324 29.3952 24.9312 29.5505L27.1967 33.8485C27.3237 34.0744 27.359 34.3214 27.3025 34.5896C27.2461 34.8577 27.1261 35.0836 26.9426 35.2671L25.9051 36.3045C25.8769 36.3328 25.8522 36.3786 25.831 36.4422C25.8099 36.5057 25.7993 36.5586 25.7993 36.601C25.8557 36.8974 25.9828 37.2361 26.1804 37.6172C26.3498 37.956 26.6109 38.3689 26.9638 38.8558C27.3166 39.3428 27.8177 39.9038 28.467 40.539C29.1022 41.1884 29.6668 41.6929 30.1608 42.0529C30.6547 42.4127 31.0677 42.6775 31.3995 42.8469C31.7312 43.0163 31.9852 43.1186 32.1616 43.1538L32.4262 43.2067C32.4544 43.2067 32.5004 43.1961 32.5639 43.175C32.6274 43.1538 32.6733 43.1291 32.7015 43.1008L33.9083 41.8728C34.1625 41.647 34.4588 41.5341 34.7976 41.5341C35.0376 41.5341 35.2281 41.5764 35.3692 41.6611H35.3904L39.4767 44.0748C39.7732 44.2584 39.9496 44.4913 40.0061 44.7736Z" fill="#E42531"/>
<path d="M66.7282 34.1654L66.6328 34C64.901 31.0142 61.6714 29 57.9782 29C54.2847 29 51.0552 31.0142 49.3236 34L49.2282 34.1654C48.5603 35.3696 48.1353 36.7254 48.0156 38.1667V39.8333C48.1353 41.2746 48.5603 42.6304 49.2282 43.8342L49.3236 44C51.0552 46.9858 54.2847 49 57.9782 49C61.6714 49 64.901 46.9858 66.6328 44L66.7282 43.8342C67.3961 42.63 67.8211 41.2746 67.9406 39.8333V38.1667C67.8211 36.7254 67.3961 35.3696 66.7282 34.1654V34.1654ZM62.9611 38.1667C62.9281 37.2912 62.8439 36.4542 62.7131 35.6667H65.6106C65.9522 36.4459 66.1811 37.2853 66.269 38.1667H62.9611ZM57.9782 47.3333C57.036 47.3333 56.0297 46.0496 55.3718 44H60.5848C59.9264 46.0496 58.9202 47.3333 57.9782 47.3333ZM54.9486 42.3333C54.8019 41.5612 54.7026 40.722 54.664 39.8333H61.2922C61.2535 40.722 61.1545 41.5612 61.0078 42.3333H54.9486ZM54.664 38.1667C54.7026 37.278 54.8019 36.4388 54.9486 35.6667H61.0078C61.1545 36.4388 61.2535 37.278 61.2922 38.1667H54.664ZM57.9782 30.6667C58.9202 30.6667 59.9264 31.9508 60.5844 34H55.3718C56.0297 31.9508 57.036 30.6667 57.9782 30.6667ZM64.629 34H62.3493C62.0682 32.9834 61.7011 32.0876 61.2647 31.3446C62.6061 31.923 63.7603 32.8475 64.629 34V34ZM54.6919 31.3446C54.2552 32.0876 53.8882 32.9834 53.6069 34H51.3274C52.1961 32.8475 53.3503 31.923 54.6919 31.3446ZM50.3455 35.6667H53.2431C53.1127 36.4542 53.028 37.2912 52.9953 38.1667H49.687C49.7749 37.2853 50.0035 36.4459 50.3455 35.6667ZM52.9953 39.8333C53.028 40.7088 53.1123 41.5458 53.2431 42.3333H50.3455C50.0039 41.5541 49.7753 40.7147 49.6874 39.8333H52.9953ZM51.3274 44H53.6069C53.8882 45.0166 54.2552 45.9124 54.6914 46.6554C53.3503 46.077 52.1961 45.1525 51.3274 44ZM61.2643 46.6554C61.7011 45.9124 62.0682 45.0166 62.3489 44H64.6286C63.7603 45.1525 62.6061 46.077 61.2643 46.6554ZM65.611 42.3333H62.7135C62.8439 41.5458 62.9285 40.7088 62.9615 39.8333H66.2698C66.1815 40.7147 65.9526 41.5541 65.611 42.3333V42.3333Z" fill="#E42531"/>
<path d="M95.1592 31H76.7217C76.2902 31 75.9404 31.3497 75.9404 31.7812V44.073C75.9404 44.5045 76.2902 44.8542 76.7217 44.8542H81.6034L80.6324 46.7965C80.3731 47.3148 80.7505 47.927 81.3311 47.927H90.5498C91.1295 47.927 91.5082 47.3158 91.2487 46.7965L90.2774 44.8542H95.1592C95.5907 44.8542 95.9404 44.5045 95.9404 44.073V31.7812C95.9404 31.3497 95.5907 31 95.1592 31V31ZM89.2858 46.3647H82.5951L83.3504 44.8542H88.5305L89.2858 46.3647ZM94.3779 43.2917H77.5029V32.5625H94.3779V43.2917Z" fill="#E42531"/>
<path d="M190.969 36.375C191.442 36.375 191.871 36.1869 192.188 35.8818L193.912 36.7441C193.903 36.8152 193.898 36.8874 193.898 36.9609C193.898 37.9302 194.687 38.7188 195.656 38.7188C196.625 38.7188 197.414 37.9302 197.414 36.9609C197.414 36.6899 197.352 36.433 197.242 36.2035L199.586 33.8594C199.816 33.9695 200.073 34.0312 200.344 34.0312C201.313 34.0312 202.102 33.2427 202.102 32.2734C202.102 32.0903 202.073 31.9138 202.021 31.7478L204.058 30.2205C204.337 30.4068 204.671 30.5156 205.031 30.5156C206 30.5156 206.789 29.7271 206.789 28.7578C206.789 27.7886 206 27 205.031 27C204.062 27 203.273 27.7886 203.273 28.7578C203.273 28.9409 203.302 29.1175 203.354 29.2835L201.317 30.8107C201.038 30.6244 200.704 30.5156 200.344 30.5156C199.375 30.5156 198.586 31.3042 198.586 32.2734C198.586 32.5444 198.648 32.8014 198.758 33.0309L196.414 35.3749C196.184 35.2649 195.927 35.2031 195.656 35.2031C195.183 35.2031 194.754 35.3913 194.437 35.6963L192.713 34.834C192.722 34.7629 192.727 34.6907 192.727 34.6172C192.727 33.6479 191.938 32.8594 190.969 32.8594C190 32.8594 189.211 33.6479 189.211 34.6172C189.211 35.5864 190 36.375 190.969 36.375ZM205.031 28.1719C205.354 28.1719 205.617 28.4348 205.617 28.7578C205.617 29.0808 205.354 29.3438 205.031 29.3438C204.708 29.3438 204.445 29.0808 204.445 28.7578C204.445 28.4348 204.708 28.1719 205.031 28.1719ZM200.344 31.6875C200.667 31.6875 200.93 31.9504 200.93 32.2734C200.93 32.5965 200.667 32.8594 200.344 32.8594C200.021 32.8594 199.758 32.5965 199.758 32.2734C199.758 31.9504 200.021 31.6875 200.344 31.6875ZM195.656 36.375C195.979 36.375 196.242 36.6379 196.242 36.9609C196.242 37.284 195.979 37.5469 195.656 37.5469C195.333 37.5469 195.07 37.284 195.07 36.9609C195.07 36.6379 195.333 36.375 195.656 36.375ZM190.969 34.0312C191.292 34.0312 191.555 34.2942 191.555 34.6172C191.555 34.9402 191.292 35.2031 190.969 35.2031C190.646 35.2031 190.383 34.9402 190.383 34.6172C190.383 34.2942 190.646 34.0312 190.969 34.0312Z" fill="white"/>
<path d="M207.414 45.8281H206.789V33.4453C206.789 33.1217 206.527 32.8594 206.203 32.8594H203.859C203.536 32.8594 203.273 33.1217 203.273 33.4453V45.8281H202.102V36.9609C202.102 36.6373 201.839 36.375 201.516 36.375H199.172C198.848 36.375 198.586 36.6373 198.586 36.9609V45.8281H197.414V41.6484C197.414 41.3248 197.152 41.0625 196.828 41.0625H194.484C194.161 41.0625 193.898 41.3248 193.898 41.6484V45.8281H192.727V39.3047C192.727 38.981 192.464 38.7188 192.141 38.7188H189.797C189.473 38.7188 189.211 38.981 189.211 39.3047V45.8281H188.586C188.262 45.8281 188 46.0904 188 46.4141C188 46.7377 188.262 47 188.586 47H207.414C207.738 47 208 46.7377 208 46.4141C208 46.0904 207.738 45.8281 207.414 45.8281ZM204.445 34.0312H205.617V45.8281H204.445V34.0312ZM199.758 37.5469H200.93V45.8281H199.758V37.5469ZM195.07 42.2344H196.242V45.8281H195.07V42.2344ZM190.383 39.8906H191.555V45.8281H190.383V39.8906Z" fill="white"/>
<path d="M205.86 14.2496C206.101 13.8811 206.242 13.4412 206.242 12.9688C206.242 11.6764 205.191 10.625 203.898 10.625C203.682 10.625 203.473 10.6551 203.273 10.7103V9.3552C204.609 9.08297 205.617 7.89914 205.617 6.48438V4.10156C205.617 2.48613 204.303 1.17188 202.688 1.17188H200.342C199.807 0.460781 198.956 0 198 0H193.312C191.697 0 190.383 1.31426 190.383 2.92969V6.48438C190.383 7.89918 191.391 9.08297 192.727 9.3552V10.7103C192.527 10.6551 192.318 10.625 192.102 10.625C190.809 10.625 189.758 11.6764 189.758 12.9688C189.758 13.4412 189.899 13.8811 190.14 14.2496C188.907 14.5952 188 15.7284 188 17.0703V19.4141C188 19.7377 188.262 20 188.586 20H195.617C195.941 20 196.203 19.7377 196.203 19.4141V17.0703C196.203 15.7284 195.296 14.5952 194.063 14.2496C194.304 13.8811 194.445 13.4412 194.445 12.9688C194.445 12.3842 194.23 11.8495 193.875 11.4385L195.899 9.41406H198H200.101L202.125 11.4385C201.77 11.8495 201.555 12.3842 201.555 12.9688C201.555 13.4412 201.696 13.8811 201.937 14.2496C200.704 14.5952 199.797 15.7284 199.797 17.0703V19.4141C199.797 19.7377 200.059 20 200.383 20H207.414C207.738 20 208 19.7377 208 19.4141V17.0703C208 15.7284 207.093 14.5952 205.86 14.2496ZM192.102 11.7969C192.748 11.7969 193.273 12.3226 193.273 12.9688C193.273 13.6149 192.748 14.1406 192.102 14.1406C191.455 14.1406 190.93 13.6149 190.93 12.9688C190.93 12.3226 191.455 11.7969 192.102 11.7969ZM195.031 17.0703V18.8281H189.172V17.0703C189.172 16.1011 189.96 15.3125 190.93 15.3125H193.273C194.243 15.3125 195.031 16.1011 195.031 17.0703ZM199.758 6.48438C199.758 7.45363 198.969 8.24219 198 8.24219H195.656C195.501 8.24219 195.352 8.30391 195.242 8.41379L193.898 9.7573V8.82812C193.898 8.50453 193.636 8.24219 193.312 8.24219C192.343 8.24219 191.555 7.45363 191.555 6.48438V2.92969C191.555 1.96043 192.343 1.17188 193.312 1.17188H198C198.969 1.17188 199.758 1.96043 199.758 2.92969V6.48438ZM203.898 11.7969C204.545 11.7969 205.07 12.3226 205.07 12.9688C205.07 13.6149 204.545 14.1406 203.898 14.1406C203.252 14.1406 202.727 13.6149 202.727 12.9688C202.727 12.3226 203.252 11.7969 203.898 11.7969ZM202.102 8.82812V9.7573L200.758 8.41379C200.648 8.30391 200.499 8.24219 200.344 8.24219H200.342C200.711 7.75219 200.93 7.1434 200.93 6.48438V2.92969C200.93 2.72906 200.909 2.53313 200.871 2.34375H202.688C203.657 2.34375 204.445 3.1323 204.445 4.10156V6.48438C204.445 7.45363 203.657 8.24219 202.688 8.24219C202.364 8.24219 202.102 8.50453 202.102 8.82812ZM206.828 18.8281H200.969V17.0703C200.969 16.1011 201.757 15.3125 202.727 15.3125H205.07C206.04 15.3125 206.828 16.1011 206.828 17.0703V18.8281Z" fill="white"/>
<path d="M197.828 2.51534C197.6 2.28651 197.229 2.28651 197 2.51534L195.07 4.44479L194.313 3.68721C194.084 3.45839 193.713 3.45839 193.484 3.68721C193.255 3.91604 193.255 4.28702 193.484 4.51584L194.656 5.68772C194.885 5.91651 195.256 5.91655 195.485 5.68772L197.828 3.34397C198.057 3.11518 198.057 2.74417 197.828 2.51534Z" fill="white"/>
<path d="M233.86 14.2496C234.101 13.8811 234.242 13.4412 234.242 12.9688C234.242 11.6764 233.191 10.625 231.898 10.625C231.682 10.625 231.473 10.6551 231.273 10.7103V9.3552C232.609 9.08297 233.617 7.89914 233.617 6.48438V4.10156C233.617 2.48613 232.303 1.17188 230.688 1.17188H228.342C227.807 0.460781 226.956 0 226 0H221.312C219.697 0 218.383 1.31426 218.383 2.92969V6.48438C218.383 7.89918 219.391 9.08297 220.727 9.3552V10.7103C220.527 10.6551 220.318 10.625 220.102 10.625C218.809 10.625 217.758 11.6764 217.758 12.9688C217.758 13.4412 217.899 13.8811 218.14 14.2496C216.907 14.5952 216 15.7284 216 17.0703V19.4141C216 19.7377 216.262 20 216.586 20H223.617C223.941 20 224.203 19.7377 224.203 19.4141V17.0703C224.203 15.7284 223.296 14.5952 222.063 14.2496C222.304 13.8811 222.445 13.4412 222.445 12.9688C222.445 12.3842 222.23 11.8495 221.875 11.4385L223.899 9.41406H226H228.101L230.125 11.4385C229.77 11.8495 229.555 12.3842 229.555 12.9688C229.555 13.4412 229.696 13.8811 229.937 14.2496C228.704 14.5952 227.797 15.7284 227.797 17.0703V19.4141C227.797 19.7377 228.059 20 228.383 20H235.414C235.738 20 236 19.7377 236 19.4141V17.0703C236 15.7284 235.093 14.5952 233.86 14.2496ZM220.102 11.7969C220.748 11.7969 221.273 12.3226 221.273 12.9688C221.273 13.6149 220.748 14.1406 220.102 14.1406C219.455 14.1406 218.93 13.6149 218.93 12.9688C218.93 12.3226 219.455 11.7969 220.102 11.7969ZM223.031 17.0703V18.8281H217.172V17.0703C217.172 16.1011 217.96 15.3125 218.93 15.3125H221.273C222.243 15.3125 223.031 16.1011 223.031 17.0703ZM227.758 6.48438C227.758 7.45363 226.969 8.24219 226 8.24219H223.656C223.501 8.24219 223.352 8.30391 223.242 8.41379L221.898 9.7573V8.82812C221.898 8.50453 221.636 8.24219 221.312 8.24219C220.343 8.24219 219.555 7.45363 219.555 6.48438V2.92969C219.555 1.96043 220.343 1.17188 221.312 1.17188H226C226.969 1.17188 227.758 1.96043 227.758 2.92969V6.48438ZM231.898 11.7969C232.545 11.7969 233.07 12.3226 233.07 12.9688C233.07 13.6149 232.545 14.1406 231.898 14.1406C231.252 14.1406 230.727 13.6149 230.727 12.9688C230.727 12.3226 231.252 11.7969 231.898 11.7969ZM230.102 8.82812V9.7573L228.758 8.41379C228.648 8.30391 228.499 8.24219 228.344 8.24219H228.342C228.711 7.75219 228.93 7.1434 228.93 6.48438V2.92969C228.93 2.72906 228.909 2.53313 228.871 2.34375H230.688C231.657 2.34375 232.445 3.1323 232.445 4.10156V6.48438C232.445 7.45363 231.657 8.24219 230.688 8.24219C230.364 8.24219 230.102 8.50453 230.102 8.82812ZM234.828 18.8281H228.969V17.0703C228.969 16.1011 229.757 15.3125 230.727 15.3125H233.07C234.04 15.3125 234.828 16.1011 234.828 17.0703V18.8281Z" fill="#E42531"/>
<path d="M225.828 2.51534C225.6 2.28651 225.229 2.28651 225 2.51534L223.07 4.44479L222.313 3.68721C222.084 3.45839 221.713 3.45839 221.484 3.68721C221.255 3.91604 221.255 4.28702 221.484 4.51584L222.656 5.68772C222.885 5.91651 223.256 5.91655 223.485 5.68772L225.828 3.34397C226.057 3.11518 226.057 2.74417 225.828 2.51534Z" fill="#E42531"/>
<path d="M227.797 27C223.274 27 219.594 30.68 219.594 35.2031C219.594 36.83 220.07 38.3477 220.89 39.6244L216.172 44.3427C216.062 44.4525 216 44.6016 216 44.757C216 44.9123 216.062 45.0614 216.172 45.1712L217.829 46.8283C217.943 46.9428 218.093 47 218.243 47C218.393 47 218.543 46.9428 218.657 46.8283L223.376 42.11C224.652 42.9302 226.17 43.4062 227.797 43.4062C232.32 43.4062 236 39.7263 236 35.2031C236 30.68 232.32 27 227.797 27ZM218.243 45.5854L217.415 44.757L219.937 42.2345L220.765 43.0629L218.243 45.5854ZM221.594 42.2342L220.766 41.4058L221.6 40.5719C221.856 40.8673 222.133 41.1443 222.428 41.4005L221.594 42.2342ZM227.797 42.2344C223.92 42.2344 220.766 39.0802 220.766 35.2031C220.766 31.326 223.92 28.1719 227.797 28.1719C231.674 28.1719 234.828 31.326 234.828 35.2031C234.828 39.0802 231.674 42.2344 227.797 42.2344Z" fill="white"/>
<path d="M227.797 29.3438C224.566 29.3438 221.938 31.9722 221.938 35.2031C221.938 38.434 224.566 41.0625 227.797 41.0625C231.028 41.0625 233.656 38.434 233.656 35.2031C233.656 31.9722 231.028 29.3438 227.797 29.3438ZM227.797 39.8906C225.212 39.8906 223.109 37.7878 223.109 35.2031C223.109 32.6184 225.212 30.5156 227.797 30.5156C230.382 30.5156 232.484 32.6184 232.484 35.2031C232.484 37.7878 230.382 39.8906 227.797 39.8906Z" fill="white"/>
<path d="M229.726 33.617L227.211 36.1322L225.867 34.7888C225.639 34.56 225.268 34.56 225.039 34.7888C224.81 35.0177 224.81 35.3887 225.039 35.6174L226.797 37.3752C227.025 37.6041 227.396 37.6041 227.625 37.3752L230.555 34.4455C230.784 34.2168 230.784 33.8459 230.555 33.617C230.326 33.3881 229.955 33.3881 229.726 33.617V33.617Z" fill="white"/>
<path d="M252.008 27C249.315 27 247.125 29.1904 247.125 31.8828C247.125 34.5752 249.315 36.7656 252.008 36.7656C254.7 36.7656 256.891 34.5752 256.891 31.8828C256.891 29.1904 254.7 27 252.008 27ZM252.008 35.5938C249.962 35.5938 248.297 33.929 248.297 31.8828C248.297 29.8366 249.962 28.1719 252.008 28.1719C254.054 28.1719 255.719 29.8366 255.719 31.8828C255.719 33.929 254.054 35.5938 252.008 35.5938Z" fill="white"/>
<path d="M259.989 46.2384L258.161 40.4188C257.775 39.1917 256.652 38.3672 255.366 38.3672H253.831C253.676 38.3672 253.527 38.4289 253.417 38.5388L252.008 39.9476L250.599 38.5388C250.489 38.4289 250.34 38.3671 250.185 38.3671H248.65C247.364 38.3671 246.241 39.1916 245.855 40.4188L244.027 46.2384C243.971 46.4164 244.003 46.6104 244.114 46.7608C244.224 46.9112 244.399 47 244.586 47H259.43C259.616 47 259.792 46.9112 259.902 46.7608C260.012 46.6104 260.045 46.4165 259.989 46.2384ZM245.384 45.8281L246.973 40.7701C247.204 40.0337 247.878 39.539 248.65 39.539H249.942L251.594 41.1906C251.822 41.4194 252.193 41.4194 252.422 41.1906L254.074 39.539H255.366C256.137 39.539 256.811 40.0337 257.043 40.7701L258.631 45.8281H245.384Z" fill="white"/>
<path d="M256.109 42.6641H253.766C253.442 42.6641 253.18 42.9264 253.18 43.25C253.18 43.5736 253.442 43.8359 253.766 43.8359H256.109C256.433 43.8359 256.695 43.5736 256.695 43.25C256.695 42.9264 256.433 42.6641 256.109 42.6641Z" fill="white"/>
<path d="M285.932 30H270.099C268.951 30 268.016 30.935 268.016 32.0834V41.25C268.016 42.3984 268.951 43.3334 270.099 43.3334H285.932C287.081 43.3334 288.016 42.3984 288.016 41.25V32.0834C288.016 30.935 287.081 30 285.932 30ZM287.182 41.25C287.182 41.9392 286.621 42.5 285.932 42.5H270.099C269.41 42.5 268.849 41.9392 268.849 41.25V32.0834C268.849 31.3942 269.41 30.8334 270.099 30.8334H285.932C286.621 30.8334 287.182 31.3942 287.182 32.0834V41.25H287.182Z" fill="white"/>
<path d="M287.599 32.5H268.432C268.202 32.5 268.016 32.6867 268.016 32.9167V35.4167C268.016 35.6467 268.202 35.8334 268.432 35.8334H287.599C287.829 35.8334 288.016 35.6467 288.016 35.4167V32.9167C288.016 32.6867 287.829 32.5 287.599 32.5ZM287.182 35H268.849V33.3333H287.182V35H287.182Z" fill="white"/>
<path d="M275.932 38.3334H270.932C270.702 38.3334 270.516 38.5201 270.516 38.7501C270.516 38.9801 270.702 39.1667 270.932 39.1667H275.932C276.162 39.1667 276.349 38.98 276.349 38.75C276.349 38.52 276.162 38.3334 275.932 38.3334Z" fill="white"/>
<path d="M275.932 40H270.932C270.702 40 270.516 40.1867 270.516 40.4167C270.516 40.6467 270.702 40.8334 270.932 40.8334H275.932C276.162 40.8334 276.349 40.6467 276.349 40.4167C276.349 40.1867 276.162 40 275.932 40Z" fill="white"/>
<path d="M284.266 37.5H283.433C282.743 37.5 282.183 38.0608 282.183 38.75V39.5833C282.183 40.2725 282.743 40.8333 283.433 40.8333H284.266C284.955 40.8333 285.516 40.2725 285.516 39.5833V38.75C285.516 38.0609 284.955 37.5 284.266 37.5ZM284.683 39.5834C284.683 39.8134 284.496 40 284.266 40H283.433C283.203 40 283.016 39.8134 283.016 39.5834V38.75C283.016 38.52 283.203 38.3334 283.433 38.3334H284.266C284.496 38.3334 284.683 38.52 284.683 38.75V39.5834Z" fill="white"/>
</svg>
