<svg width="127" height="72" viewBox="0 0 127 72" fill="none" xmlns="http://www.w3.org/2000/svg">
<path d="M92.2759 0C94.033 0.0183933 95.7905 0.00326282 97.5479 0.00504282C97.5542 5.39132 97.5512 10.7752 97.5479 16.1591C95.7908 16.1606 94.0318 16.163 92.275 16.1606C92.2759 10.7749 92.2711 5.38746 92.2759 0ZM103.941 18.2316C108.77 13.2479 113.544 8.20372 118.368 3.21349C119.605 4.52001 120.881 5.79123 122.094 7.12415C117.319 12.1529 112.499 17.1316 107.722 22.1556C106.44 20.8696 105.201 19.5396 103.941 18.2316ZM11.4687 15.2718C12.7989 14.9532 14.1612 14.7746 15.5268 14.8298C20.0563 14.7209 24.4561 17.107 27.2626 20.7628C28.5976 22.4932 29.5731 24.5272 30.1133 26.6745C28.0378 26.6825 25.9626 26.676 23.8874 26.676C22.9728 24.7773 21.5723 23.0875 19.7448 22.1025C18.7373 21.5303 17.6293 21.1496 16.491 21.0028C15.428 20.9811 14.3407 20.8859 13.2997 21.1663C11.5488 21.5617 9.92127 22.5194 8.6821 23.8692C7.06527 25.4543 5.98154 27.6849 5.88572 30.0143C5.67805 32.2334 6.0839 34.5593 7.29607 36.4265C8.46168 38.2148 10.1103 39.7049 12.0623 40.4727C15.3354 41.7341 19.2974 40.9735 21.8043 38.3975C22.6483 37.5064 23.379 36.4837 23.91 35.3573C25.9754 35.3472 28.0414 35.3457 30.1088 35.3573C29.5971 37.6351 28.4825 39.7456 27.0742 41.5541C26.108 42.6072 25.1601 43.7102 23.9705 44.4943C18.6317 48.3302 10.8792 48.1134 5.85991 43.7767C4.29974 42.3922 2.87307 40.7988 1.89289 38.9066C0.0861889 35.5629 -0.364447 31.5437 0.274869 27.7976C0.813912 24.6227 2.41265 21.6979 4.61569 19.4604C6.47401 17.4437 8.85179 15.9218 11.4687 15.2718ZM33.2755 14.8274C35.2468 14.8274 37.2199 14.8274 39.191 14.8274C39.1895 25.6714 39.196 36.5146 39.188 47.3583C37.2167 47.3634 35.2465 47.3548 33.2752 47.3563C33.2754 36.5131 33.2755 25.6714 33.2755 14.8274ZM51.1511 21.3027C52.2722 21.066 53.4197 21.1998 54.5533 21.1692C55.8678 21.2879 57.1853 21.4846 58.4354 21.9468C59.6891 22.4007 60.9793 22.9694 61.8572 24.0525C62.889 25.3323 63.2542 27.034 63.3346 28.666C63.3313 34.896 63.3399 41.1278 63.3313 47.3581C61.3309 47.3486 59.3296 47.4017 57.3309 47.3313C57.3117 46.4841 57.3467 45.6347 57.3179 44.7889C55.5765 46.3553 53.274 47.0765 51.0167 47.2581C49.5921 47.5132 48.118 47.2833 46.7589 46.8077C45.0098 46.2005 43.5692 44.6821 43.053 42.83C42.4935 40.8545 42.6104 38.6921 43.2639 36.7582C43.9738 34.7874 45.6847 33.3865 47.5653 32.7469C49.9742 31.8578 52.5502 31.7208 55.0413 31.2069C55.9031 31.2069 56.7551 30.6516 57.0749 29.8073C57.3051 28.8849 57.1055 27.7285 56.3267 27.1429C55.4697 26.5543 54.4224 26.4321 53.4218 26.4021C52.5312 26.4303 51.5896 26.4404 50.801 26.9326C49.7763 27.5384 49.3159 28.7431 49.1142 29.8945C47.1333 29.8512 45.1504 29.8975 43.1696 29.8613C43.4161 27.8291 43.8237 25.6599 45.2213 24.1184C46.6854 22.3304 48.9543 21.4798 51.1511 21.3027ZM55.5112 35.3665C54.3408 35.6483 53.1883 36.0123 51.9984 36.2007C51.0517 36.3959 50.0555 36.7145 49.3824 37.4776C48.4473 38.6304 48.3784 40.4089 49.1041 41.692C49.4191 42.2806 50.0445 42.5696 50.6263 42.7799C52.5033 43.1584 54.5642 42.5482 55.9345 41.1429C57.3398 39.3095 57.0921 36.8264 57.0874 34.6308C56.535 34.8144 56.0885 35.257 55.5112 35.3665ZM77.4369 22.0441C78.6565 21.732 79.8556 21.2081 81.1366 21.3333C81.1509 23.4387 81.2601 25.5474 81.2179 27.655C80.128 27.4983 78.9891 27.3713 77.9199 27.7116C75.6124 28.3776 73.6829 30.5 73.4126 33.0196C73.3963 33.5749 73.2527 34.1169 73.2477 34.6744C73.2444 38.904 73.2527 43.132 73.2477 47.3619C71.2814 47.3563 69.3127 47.3767 67.3461 47.35C67.3239 39.0223 67.3411 30.6919 67.3571 22.3627C69.2632 22.344 71.1675 22.4191 73.0718 22.493C73.0747 23.5209 73.0474 24.55 73.0848 25.5798C74.1991 24.0291 75.662 22.6879 77.4369 22.0441ZM92.1703 21.3983C93.0481 21.3063 93.9387 21.2194 94.8228 21.2947C100.128 21.3647 104.971 25.6329 106.236 30.9571C107.328 35.3086 106.266 40.3288 103.108 43.4857C101.281 45.543 98.7738 46.9395 96.1144 47.3583C94.8325 47.3696 93.5501 47.3634 92.2696 47.3619C88.4421 46.7994 85.1161 44.0731 83.2275 40.6208C81.2657 36.8317 81.2577 32.0284 83.1813 28.2207C85.0075 24.7168 88.3347 21.9705 92.1703 21.3983ZM92.6467 27.5662C90.8801 27.9837 89.376 29.2765 88.4756 30.8951C87.1308 33.2525 87.3447 36.4659 89.0223 38.5886C90.7302 41.1533 94.238 42.0204 96.9193 40.7044C98.478 39.9734 99.6679 38.537 100.33 36.9118C101.063 35.0452 100.931 32.854 100.05 31.0675C99.1244 29.2605 97.4245 27.8407 95.4645 27.5155C94.5273 27.4363 93.5759 27.4078 92.6467 27.5662ZM110.359 28.5061C115.626 28.5061 120.894 28.5022 126.163 28.5093C126.159 30.3347 126.166 32.1619 126.161 33.9888C120.894 33.9823 115.629 34.0004 110.363 33.9923C110.354 32.1634 110.369 30.3344 110.359 28.5061Z" fill="white"/>
<path d="M7.96258 66.043V71.0527H5.03289V56.834H10.5798C11.6475 56.834 12.585 57.0293 13.3923 57.4199C14.2061 57.8105 14.8311 58.3672 15.2673 59.0898C15.7035 59.806 15.9216 60.623 15.9216 61.541C15.9216 62.9342 15.4431 64.0345 14.486 64.8418C13.5355 65.6426 12.2171 66.043 10.5309 66.043H7.96258ZM7.96258 63.6699H10.5798C11.3545 63.6699 11.9437 63.4876 12.3473 63.123C12.7575 62.7585 12.9626 62.2376 12.9626 61.5605C12.9626 60.8639 12.7575 60.3008 12.3473 59.8711C11.9372 59.4414 11.3708 59.2201 10.6481 59.207H7.96258V63.6699ZM28.4977 64.8906H22.8727V68.6992H29.4743V71.0527H19.9431V56.834H29.4548V59.207H22.8727V62.5957H28.4977V64.8906ZM38.4567 65.8477H36.1227V71.0527H33.1931V56.834H38.4763C40.1559 56.834 41.4515 57.2083 42.363 57.957C43.2744 58.7057 43.7302 59.7637 43.7302 61.1309C43.7302 62.1009 43.5186 62.9115 43.0954 63.5625C42.6787 64.207 42.044 64.7214 41.1911 65.1055L44.2673 70.916V71.0527H41.1227L38.4567 65.8477ZM36.1227 63.4746H38.486C39.2217 63.4746 39.7914 63.2891 40.195 62.918C40.5986 62.5404 40.8005 62.0228 40.8005 61.3652C40.8005 60.6947 40.6084 60.1673 40.2243 59.7832C39.8467 59.3991 39.264 59.207 38.4763 59.207H36.1227V63.4746ZM55.3395 67.3223C55.3395 66.7689 55.1442 66.3457 54.7536 66.0527C54.363 65.7533 53.6598 65.4408 52.6442 65.1152C51.6286 64.7832 50.8246 64.4577 50.2321 64.1387C48.6175 63.2663 47.8102 62.0911 47.8102 60.6133C47.8102 59.8451 48.0251 59.1615 48.4548 58.5625C48.891 57.957 49.5127 57.485 50.32 57.1465C51.1338 56.8079 52.0453 56.6387 53.0544 56.6387C54.07 56.6387 54.975 56.8242 55.7692 57.1953C56.5635 57.5599 57.1787 58.0775 57.6149 58.748C58.0576 59.4186 58.279 60.1803 58.279 61.0332H55.3493C55.3493 60.3822 55.1442 59.8776 54.7341 59.5195C54.3239 59.1549 53.7477 58.9727 53.0056 58.9727C52.2894 58.9727 51.7328 59.1257 51.3356 59.4316C50.9385 59.7311 50.7399 60.1283 50.7399 60.623C50.7399 61.0853 50.971 61.4727 51.4333 61.7852C51.902 62.0977 52.5889 62.3906 53.4938 62.6641C55.1605 63.1654 56.3747 63.7871 57.1364 64.5293C57.8981 65.2715 58.279 66.196 58.279 67.3027C58.279 68.5332 57.8135 69.5 56.8825 70.2031C55.9515 70.8997 54.6983 71.248 53.1227 71.248C52.029 71.248 51.0329 71.0495 50.1345 70.6523C49.236 70.2487 48.5492 69.6986 48.0739 69.002C47.6052 68.3053 47.3708 67.498 47.3708 66.5801H50.3102C50.3102 68.1491 51.2477 68.9336 53.1227 68.9336C53.8194 68.9336 54.363 68.7936 54.7536 68.5137C55.1442 68.2272 55.3395 67.8301 55.3395 67.3223ZM73.9509 64.2656C73.9509 65.6654 73.7035 66.8926 73.2087 67.9473C72.7139 69.002 72.0042 69.8158 71.0798 70.3887C70.1618 70.9616 69.1071 71.248 67.9157 71.248C66.7373 71.248 65.6859 70.9648 64.7614 70.3984C63.8369 69.832 63.1208 69.0247 62.613 67.9766C62.1052 66.9219 61.848 65.7109 61.8415 64.3438V63.6406C61.8415 62.2409 62.0921 61.0104 62.5934 59.9492C63.1013 58.8815 63.8141 58.0645 64.7321 57.498C65.6566 56.9251 66.7113 56.6387 67.8962 56.6387C69.0811 56.6387 70.1325 56.9251 71.0505 57.498C71.975 58.0645 72.6878 58.8815 73.1891 59.9492C73.697 61.0104 73.9509 62.2376 73.9509 63.6309V64.2656ZM70.9821 63.6211C70.9821 62.1302 70.7152 60.9974 70.1813 60.2227C69.6475 59.4479 68.8858 59.0605 67.8962 59.0605C66.9131 59.0605 66.1546 59.4447 65.6208 60.2129C65.0869 60.9746 64.8167 62.0944 64.8102 63.5723V64.2656C64.8102 65.7174 65.0772 66.8438 65.611 67.6445C66.1449 68.4453 66.9131 68.8457 67.9157 68.8457C68.8988 68.8457 69.654 68.4616 70.1813 67.6934C70.7087 66.9186 70.9756 65.7923 70.9821 64.3145V63.6211ZM89.6423 71.0527H86.7126L81.0095 61.6973V71.0527H78.0798V56.834H81.0095L86.7224 66.209V56.834H89.6423V71.0527ZM102.404 68.123H97.2673L96.2907 71.0527H93.1755L98.4684 56.834H101.183L106.506 71.0527H103.39L102.404 68.123ZM98.0583 65.75H101.613L99.8259 60.4277L98.0583 65.75ZM117.207 67.3223C117.207 66.7689 117.011 66.3457 116.621 66.0527C116.23 65.7533 115.527 65.4408 114.511 65.1152C113.496 64.7832 112.692 64.4577 112.099 64.1387C110.485 63.2663 109.677 62.0911 109.677 60.6133C109.677 59.8451 109.892 59.1615 110.322 58.5625C110.758 57.957 111.38 57.485 112.187 57.1465C113.001 56.8079 113.912 56.6387 114.922 56.6387C115.937 56.6387 116.842 56.8242 117.636 57.1953C118.431 57.5599 119.046 58.0775 119.482 58.748C119.925 59.4186 120.146 60.1803 120.146 61.0332H117.216C117.216 60.3822 117.011 59.8776 116.601 59.5195C116.191 59.1549 115.615 58.9727 114.873 58.9727C114.157 58.9727 113.6 59.1257 113.203 59.4316C112.806 59.7311 112.607 60.1283 112.607 60.623C112.607 61.0853 112.838 61.4727 113.3 61.7852C113.769 62.0977 114.456 62.3906 115.361 62.6641C117.028 63.1654 118.242 63.7871 119.004 64.5293C119.765 65.2715 120.146 66.196 120.146 67.3027C120.146 68.5332 119.681 69.5 118.75 70.2031C117.819 70.8997 116.565 71.248 114.99 71.248C113.896 71.248 112.9 71.0495 112.002 70.6523C111.103 70.2487 110.416 69.6986 109.941 69.002C109.472 68.3053 109.238 67.498 109.238 66.5801H112.177C112.177 68.1491 113.115 68.9336 114.99 68.9336C115.687 68.9336 116.23 68.7936 116.621 68.5137C117.011 68.2272 117.207 67.8301 117.207 67.3223Z" fill="white"/>
</svg>
